<?xml version="1.0" encoding="UTF-8"?>
<svg xmlns="http://www.w3.org/2000/svg" id="Layer_1" data-name="Layer 1" viewBox="0 0 84.2483 84.2483">
  <defs>
    <style>
      .cls-1 {
        fill: #fff;
      }

      .cls-2 {
        fill: #997664;
      }
    </style>
  </defs>
  <rect class="cls-2" x="0" y="0" width="84.2483" height="84.2483" rx="42.1241" ry="42.1241"></rect>
  <g>
    <path class="cls-1" d="m21.5433,39.1523c.2267-.371.563-.4698.9854-.468,2.8.0119,5.6002.0061,8.4002.0061.1431,0,.2862,0,.4383,0-.4582-2.017-.0826-2.9031,1.4459-3.4901-.154-.7813-.3579-1.5559-.452-2.3437-.2426-2.0301.0132-3.9609,1.3454-5.6184,1.0421-1.2965,2.4447-2.0362,4.0224-2.4226,3.0607-.7497,6.1371-.7739,9.1672.1335,2.5071.7508,4.2554,2.3243,4.8278,4.9787.3405,1.579.1646,3.1417-.2499,4.6861-.0485.1806-.097.3613-.1558.5802.7861.1533,1.3274.5948,1.6104,1.3481.2677.7125.2028,1.4118-.0895,2.1482h.4898c2.7867,0,5.5734-.0003,8.3601.001.1468,0,.2968-.003.4398.0244.3639.0698.6056.3719.5649.7158-.0429.3624-.2502.584-.6235.6208-.1461.0144-.2944.0101-.4417.0101-2.9877.0005-5.9754.0105-8.9629-.0113-.4146-.003-.547.16-.5745.5133-.0187.2402-.0314.4809-.0498.7212-.067.8725-.5812,1.5481-1.4168,1.8061-.2458.0759-.3073.1989-.3523.4366-.129.6809-.2304,1.3827-.4847,2.0195-.2166.5423-.6384,1.0008-.9524,1.507-.0957.1543-.2018.3492-.1881.5161.0557.6797.1415,1.3581.2533,2.0309.0202.1219.1968.2707.3309.3129,1.99.6261,3.975,1.2718,5.982,1.839,1.6233.4588,2.78,1.8216,2.6842,3.6652-.0305.5878.0026,1.1786-.0075,1.7678-.0141.8185-.5712,1.3731-1.3936,1.4036-.0669.0025-.134.0009-.2009.0009-9.4453,0-18.8906.0002-28.3358-.0012-.16,0-.3233-.0014-.4794-.0314-.6703-.1287-1.1097-.6383-1.1229-1.3212-.0135-.6963-.0104-1.393-.0031-2.0894.0168-1.5936.9209-2.8271,2.4416-3.3035,2.0418-.6397,4.0867-1.2696,6.1357-1.8858.3014-.0907.4295-.2158.4524-.5415.0433-.6131.1557-1.2211.218-1.8333.0146-.1431-.0049-.3538-.096-.4337-1.0098-.8852-1.3161-2.0857-1.4896-3.3313-.0585-.4199-.1465-.6641-.5999-.824-.7424-.2618-1.1173-.8789-1.197-1.6633-.0298-.2928-.0487-.5868-.0823-.8792-.0315-.2741-.1516-.4076-.4702-.3983-.8701.0254-1.7414.0087-2.6123.0087-2.1838,0-4.3677-.0078-6.5514.0069-.407.0027-.7282-.0946-.9597-.4352v-.4822Zm13.9584,12.0607c-2.1123.6486-4.1964,1.2872-6.2795,1.929-.7827.2411-1.3457.7573-1.4437,1.5624-.099.8134-.0218,1.6482-.0218,2.4914h28.7648c0-.6915.0049-1.3585-.0011-2.0253-.0091-1.0059-.5434-1.7281-1.5102-2.0308-1.2762-.3995-2.5554-.7895-3.8337-1.1825-.8147-.2505-1.6299-.4989-2.4547-.7511-.7298,1.4302-1.8971,2.2917-3.3606,2.789-1.0123.344-2.0623.4837-3.1236.4732-2.739-.0269-5.2293-.6001-6.736-3.2552Zm-2.0061-11.1286c.029.3.0639.5758.0806.8526.0412.6834.2353.8822.9303.9336.5498.0407.7619.259.7813.805.0033.0937.002.1875.0064.2811.0839,1.7821.6973,3.2471,2.3874,4.1064.8343.4242,1.5496,1.0023,2.2534,1.6388,1.3615,1.2314,2.7116,1.2598,4.1864.1901.2147-.1557.3856-.3705.5906-.5413.3257-.2711.6502-.5471.9985-.787.6271-.432,1.2993-.8034,1.8978-1.2703.3353-.2615.6841-.6239.8099-1.0112.2575-.7929.4194-1.6269.5248-2.4561.0914-.7194.1727-.8705.8881-.9625.365-.0469.7438-.1295.8116-.5794.0588-.3906.0682-.7887.1008-1.1998h-17.2479Zm3.5204-9.5917c-.4806.2782-.882.7618-1.272,1.5598-.581,1.1887-.9122,2.4528-1.1101,3.7552-.1282.8441-.3493.994-1.1766.7852-.4826-.1218-.8924.1304-.9029.6295-.0074.3492.1056.7036.1846,1.0512.0768.3378.2961.4266.6465.4259,5.8276-.0126,11.6553-.009,17.483-.009.067,0,.1438.021.1989-.0047.1193-.0555.2769-.1089.3302-.2099.1234-.2338.2296-.4885.28-.747.1778-.9115-.2373-1.2893-1.1306-1.0538-.5099.1345-.9094-.1368-.9487-.624-.1276-1.5816-.5661-3.0754-1.3636-4.4467-.2482-.4267-.6191-.7821-.9511-1.1914-1.9964,2.7934-8.3145,2.7985-10.2675.0798Zm13.3808,2.45c.0205-.0289.0459-.0487.0494-.0717.3778-2.513-.3303-5.4033-3.5682-6.476-3.1788-1.0531-6.4087-1.0386-9.5913.004-1.8558.6079-3.0732,1.8858-3.491,3.8536-.2139,1.0075-.224,2.2454.0356,2.8743.1165-.3149.2167-.6184.3398-.9124.4539-1.0842.9921-2.1128,1.9904-2.8105.7002-.4894,1.4212-.4065,1.96.2479.5049.6132,1.1455.9979,1.8938,1.2192,1.085.3209,2.192.3411,3.3034.1942,1.1515-.1522,2.1519-.5842,2.9083-1.5245.4276-.5316,1.1554-.5846,1.7493-.2082.6739.427,1.1675,1.026,1.5328,1.721.3218.6123.591,1.2523.8878,1.8892Zm-13.362,15.2209c-.0426.0316-.0853.0631-.1279.0947-.0594.4763-.0736.9639-.1888,1.4262-.1675.6717.0924,1.1888.5168,1.6377.3179.3361.6652.6898,1.0713.8897,2.4925,1.2268,5.0214,1.2218,7.5346.0629.7184-.3313,1.2633-.8966,1.6107-1.622.0723-.1509.1382-.3332.1227-.4929-.0617-.6356-.1567-1.2679-.2436-1.9341-.0982.0456-.1701.0735-.2367.1108-.6171.3451-1.1905.7259-1.6969,1.2469-.9195.9462-2.0905,1.4838-3.4177,1.4311-1.2719-.0504-2.3425-.6483-3.273-1.5265-.515-.4861-1.1116-.8858-1.6714-1.3244Z"></path>
    <path class="cls-1" d="m21.5433,23.8019c.0476-.1214.1004-.241.1419-.3644.3735-1.1105,1.374-1.8725,2.5416-1.8799,2.2775-.0145,4.5551-.0075,6.8327-.0038.4665.0008.7753.2897.7704.6909-.0049.4012-.3113.6733-.786.6741-2.1838.0035-4.3676.0007-6.5514.0021-1.0471.0007-1.579.5351-1.5796,1.586-.0012,2.1431-.0046,4.2862.0034,6.4293.0015.396-.0757.7317-.4904.8653-.4255.1371-.6772-.1199-.8827-.4451,0-2.5182,0-5.0364,0-7.5547Z"></path>
    <path class="cls-1" d="m21.5433,52.8953c.2035-.3273.457-.5807.8807-.4464.414.1313.4939.4657.4924.8619-.0081,2.1529-.005,4.3059-.0033,6.4589.0008,1.0163.5442,1.5602,1.5606,1.561,2.1535.0019,4.307.0049,6.4604-.0033.3963-.0015.7301.078.8622.4919.1356.4246-.1222.6754-.4458.881h-7.476c-.8473-.2105-1.5538-.6255-1.9812-1.4154-.1429-.2641-.2348-.5558-.3501-.8349,0-2.5182,0-5.0364,0-7.5547Z"></path>
    <path class="cls-1" d="m52.8943,62.7003c-.1585-.2018-.3965-.3821-.4582-.6102-.1149-.4244.2632-.757.7957-.7576,2.1696-.0026,4.3392-.0003,6.5089-.0016,1.0495-.0006,1.5903-.5353,1.5911-1.5748.0016-2.1022.0005-4.2043.0006-6.3065,0-.1205-.0053-.2415.0032-.3614.0276-.3881.3026-.6636.6642-.6722.3753-.0089.6761.2744.6969.681.0157.3072.0047.6158.0047.9237.0002,1.9147.0014,3.8294-.0004,5.7442-.0014,1.5146-.7526,2.485-2.2236,2.8817-.0378.0102-.0714.0354-.107.0537h-7.476Z"></path>
    <path class="cls-1" d="m62.7013,27.6596c0,1.1106.0018,2.2213-.0008,3.3319-.0013.5287-.2734.8527-.6981.8443-.4128-.0082-.6687-.319-.6692-.8301-.0021-2.1678,0-4.3356-.0014-6.5034-.0007-1.0473-.5346-1.5807-1.5822-1.5814-2.1014-.0013-4.2027-.0004-6.3041-.0005-.1205,0-.2414.0055-.3613-.0034-.387-.0288-.6621-.3056-.6695-.6667-.0077-.3754.2756-.6762.6829-.6936.3741-.016.7494-.0048,1.1241-.0049,1.8604-.0002,3.7209-.0025,5.5813.0007,1.7343.0029,2.8929,1.1619,2.8976,2.8956.0029,1.0705.0005,2.141.0005,3.2115Z"></path>
  </g>
</svg>
